<svg xmlns="http://www.w3.org/2000/svg" viewBox="0 0 64 64">
  <rect width="64" height="64" rx="14" fill="#1c2c52"/>
  <!-- tres estrellas -->
  <g fill="#79b3e4">
    <path transform="translate(22,13) scale(0.6)" d="M0,-5 L1.1,-1.5 L4.8,-1.5 L1.8,0.6 L2.9,4 L0,1.9 L-2.9,4 L-1.8,0.6 L-4.8,-1.5 L-1.1,-1.5 Z"/>
    <path transform="translate(32,11) scale(0.6)" d="M0,-5 L1.1,-1.5 L4.8,-1.5 L1.8,0.6 L2.9,4 L0,1.9 L-2.9,4 L-1.8,0.6 L-4.8,-1.5 L-1.1,-1.5 Z"/>
    <path transform="translate(42,13) scale(0.6)" d="M0,-5 L1.1,-1.5 L4.8,-1.5 L1.8,0.6 L2.9,4 L0,1.9 L-2.9,4 L-1.8,0.6 L-4.8,-1.5 L-1.1,-1.5 Z"/>
  </g>
  <!-- numero 1 -->
  <g fill="#79b3e4">
    <path d="M21 27 L15 31 L15 33.5 L20 30.8 L20 49 L24.5 49 L24.5 27 Z"/>
    <rect x="14.5" y="49" width="16" height="4.5" rx="1"/>
  </g>
  <!-- numero 0 (anillo) -->
  <ellipse cx="43" cy="39.5" rx="8.5" ry="12.5" fill="none" stroke="#79b3e4" stroke-width="6.5"/>
</svg>
